<svg width="131" height="42" viewBox="0 0 131 42" fill="none" xmlns="http://www.w3.org/2000/svg">
<g id="Other Action">
<g id="Rectangle">
<rect y="1" width="131" height="40" rx="12" fill="#323D4E"/>
<rect x="0.3" y="1.3" width="130.4" height="39.4" rx="11.7" stroke="#CFCFCF" stroke-opacity="0.11421" stroke-width="0.6"/>
</g>
<path id="Line" opacity="0.700544" d="M44.5 41V1" stroke="#979797" stroke-width="0.4" stroke-linecap="square"/>
<path id="Line_2" opacity="0.700544" d="M89.5 41V1" stroke="#979797" stroke-width="0.4" stroke-linecap="square"/>
<path id="Shape" fill-rule="evenodd" clip-rule="evenodd" d="M113.333 13.8889H116.444V15.6667H104V13.8889H107.111L108 13H112.444L113.333 13.8889ZM106.667 29C105.689 29 104.889 28.2 104.889 27.2222V16.5556H115.556V27.2222C115.556 28.2 114.756 29 113.778 29H106.667Z" fill="white"/>
<path id="Shape_2" fill-rule="evenodd" clip-rule="evenodd" d="M28.2222 13H15.7689C14.7867 13 14.0089 13.7956 14.0089 14.7778L14 27.2222C14 28.2044 14.7867 29 15.7689 29H28.2222C29.2044 29 30 28.2044 30 27.2222V14.7778C30 13.7956 29.2044 13 28.2222 13ZM28.2222 23.6667H24.6667C24.6667 25.1378 23.4711 26.3333 22 26.3333C20.5289 26.3333 19.3333 25.1378 19.3333 23.6667H15.7689V14.7778H28.2222V23.6667ZM23.7778 19.2222H25.5556L22 22.7778L18.4444 19.2222H20.2222V16.5556H23.7778V19.2222Z" fill="white"/>
<path id="Shape_3" fill-rule="evenodd" clip-rule="evenodd" d="M67 13C62.584 13 59 16.584 59 21C59 25.416 62.584 29 67 29C71.416 29 75 25.416 75 21C75 16.584 71.416 13 67 13ZM66.2 25V20.2H67.8V25H66.2ZM66.2 17V18.6H67.8V17H66.2Z" fill="white"/>
</g>
</svg>
