<svg width="32" height="33" viewBox="0 0 32 33" fill="none" xmlns="http://www.w3.org/2000/svg">
<g id="Element / icon / calendar">
<rect id="Rectangle" opacity="0.01" y="0.666687" width="32" height="32" fill="black"/>
<path id="Shape" fill-rule="evenodd" clip-rule="evenodd" d="M22.6667 6.00003H24C26.2091 6.00003 28 7.79089 28 10V26C28 28.2092 26.2091 30 24 30H8C5.79086 30 4 28.2092 4 26V10C4 7.79089 5.79086 6.00003 8 6.00003H9.33333V4.66669C9.33333 3.93031 9.93029 3.33336 10.6667 3.33336C11.403 3.33336 12 3.93031 12 4.66669V6.00003H20V4.66669C20 3.93031 20.597 3.33336 21.3333 3.33336C22.0697 3.33336 22.6667 3.93031 22.6667 4.66669V6.00003ZM9.33333 22C9.33333 22.7364 9.93029 23.3334 10.6667 23.3334C11.403 23.3334 12 22.7364 12 22C12 21.2636 11.403 20.6667 10.6667 20.6667C9.93029 20.6667 9.33333 21.2636 9.33333 22ZM21.3333 23.3334H16C15.2636 23.3334 14.6667 22.7364 14.6667 22C14.6667 21.2636 15.2636 20.6667 16 20.6667H21.3333C22.0697 20.6667 22.6667 21.2636 22.6667 22C22.6667 22.7364 22.0697 23.3334 21.3333 23.3334ZM6.66667 15.3334H25.3333V10C25.3333 9.26364 24.7364 8.66669 24 8.66669H22.6667V10C22.6667 10.7364 22.0697 11.3334 21.3333 11.3334C20.597 11.3334 20 10.7364 20 10V8.66669H12V10C12 10.7364 11.403 11.3334 10.6667 11.3334C9.93029 11.3334 9.33333 10.7364 9.33333 10V8.66669H8C7.26362 8.66669 6.66667 9.26364 6.66667 10V15.3334Z" fill="white"/>
</g>
</svg>
