<svg width="32" height="32" viewBox="0 0 32 32" fill="none" xmlns="http://www.w3.org/2000/svg">
<rect opacity="0.01" width="32" height="32" fill="black"/>
<path fill-rule="evenodd" clip-rule="evenodd" d="M8.50323 4.92282C13.8089 1.33792 20.9137 2.03083 25.4267 6.57331L25.4934 6.59998C30.0359 11.113 30.7288 18.2178 27.1439 23.5235C23.559 28.8291 16.7087 30.8372 10.8267 28.3066C10.5575 28.1931 10.2634 28.1518 9.97338 28.1866L4.26672 29.3333H4.00005C3.63645 29.3426 3.28484 29.2029 3.02672 28.9466C2.71018 28.6286 2.57489 28.1726 2.66672 27.7333L3.84005 22.0933C3.88985 21.8033 3.8479 21.505 3.72005 21.24C1.1895 15.358 3.19758 8.50772 8.50323 4.92282ZM9.33333 16C9.33333 16.7364 9.93029 17.3333 10.6667 17.3333C11.403 17.3333 12 16.7364 12 16C12 15.2636 11.403 14.6667 10.6667 14.6667C9.93029 14.6667 9.33333 15.2636 9.33333 16ZM16 17.3333C15.2636 17.3333 14.6667 16.7364 14.6667 16C14.6667 15.2636 15.2636 14.6667 16 14.6667C16.7364 14.6667 17.3333 15.2636 17.3333 16C17.3333 16.7364 16.7364 17.3333 16 17.3333ZM20 16C20 16.7364 20.597 17.3333 21.3333 17.3333C22.0697 17.3333 22.6667 16.7364 22.6667 16C22.6667 15.2636 22.0697 14.6667 21.3333 14.6667C20.597 14.6667 20 15.2636 20 16Z" fill="white"/>
</svg>
