<svg width="32" height="33" viewBox="0 0 32 33" fill="none" xmlns="http://www.w3.org/2000/svg">
<g id="Element / icon / UI element">
<rect id="Rectangle" opacity="0.01" y="0.333313" width="32" height="32" fill="black"/>
<path id="Shape" fill-rule="evenodd" clip-rule="evenodd" d="M28.2267 14.1067H19.3334C18.7222 14.1067 18.2267 13.6112 18.2267 13V4.10665C18.2267 3.49546 18.7222 2.99998 19.3334 2.99998C24.8562 2.99998 29.3334 7.47714 29.3334 13C29.3334 13.6112 28.8379 14.1067 28.2267 14.1067ZM27.0268 11.8933C26.5355 8.4797 23.8537 5.79795 20.4401 5.30664V11.8933H27.0268Z" fill="white"/>
<path id="Path" d="M28.1067 16.3333H17.24C16.9182 16.3333 16.6096 16.2055 16.3821 15.9779C16.1545 15.7504 16.0267 15.4418 16.0267 15.12V4.22663C16.0288 3.87683 15.8814 3.54277 15.6216 3.30848C15.3619 3.07418 15.0144 2.96194 14.6667 2.99997C7.70661 3.73901 2.50275 9.73398 2.74951 16.7288C2.99627 23.7237 8.60964 29.3371 15.6045 29.5838C22.5993 29.8306 28.5943 24.6267 29.3334 17.6666C29.3633 17.3233 29.2474 16.9831 29.0141 16.7294C28.7807 16.4758 28.4514 16.332 28.1067 16.3333Z" fill="white"/>
</g>
</svg>
