<svg width="32" height="33" viewBox="0 0 32 33" fill="none" xmlns="http://www.w3.org/2000/svg">
<g id="Element / icon / invoice">
<rect id="Rectangle" opacity="0.01" y="0.666687" width="32" height="32" fill="black"/>
<path id="Shape" fill-rule="evenodd" clip-rule="evenodd" d="M6.66663 7.33335H25.3333C27.5424 7.33335 29.3333 9.12421 29.3333 11.3334V22C29.3333 24.2092 27.5424 26 25.3333 26H6.66663C4.45749 26 2.66663 24.2092 2.66663 22V11.3334C2.66663 9.12421 4.45749 7.33335 6.66663 7.33335ZM9.33333 20.6667H14.6667C15.403 20.6667 16 20.0697 16 19.3334C16 18.597 15.403 18 14.6667 18H9.33333C8.59695 18 8 18.597 8 19.3334C8 20.0697 8.59695 20.6667 9.33333 20.6667ZM22.6667 20.6667H20C19.2636 20.6667 18.6667 20.0697 18.6667 19.3334C18.6667 18.597 19.2636 18 20 18H22.6667C23.403 18 24 18.597 24 19.3334C24 20.0697 23.403 20.6667 22.6667 20.6667ZM5.33333 12.6667H26.6667V11.3334C26.6667 10.597 26.0697 10 25.3333 10H6.66667C5.93029 10 5.33333 10.597 5.33333 11.3334V12.6667Z" fill="white"/>
</g>
</svg>
