<svg width="32" height="32" viewBox="0 0 32 32" fill="none" xmlns="http://www.w3.org/2000/svg">
<g id="Logout" opacity="0.700291">
<g id="power">
<rect id="Rectangle" opacity="0.01" y="-6.10352e-05" width="32" height="32" fill="white"/>
<path id="Path" d="M16 17.3333C16.7363 17.3333 17.3333 16.7364 17.3333 16V2.66668C17.3333 1.9303 16.7363 1.33334 16 1.33334C15.2636 1.33334 14.6666 1.9303 14.6666 2.66668V16C14.6666 16.7364 15.2636 17.3333 16 17.3333Z" fill="#E7E7E7"/>
<path id="Path_2" d="M22.12 4.14669C21.4646 3.80796 20.6588 4.06465 20.32 4.72003C19.9813 5.3754 20.238 6.18129 20.8934 6.52003C25.2662 8.77762 27.5269 13.7337 26.3653 18.5159C25.2037 23.298 20.9212 26.6647 16 26.6647C11.0788 26.6647 6.7964 23.298 5.63478 18.5159C4.47315 13.7337 6.7339 8.77762 11.1067 6.52003C11.5306 6.3009 11.8055 5.87225 11.8277 5.39553C11.8499 4.91881 11.6161 4.46646 11.2144 4.20886C10.8126 3.95127 10.304 3.92757 9.88003 4.14669C4.41545 6.9699 1.5912 13.1648 3.04391 19.1416C4.49661 25.1184 9.84924 29.3258 16 29.3258C22.1508 29.3258 27.5034 25.1184 28.9561 19.1416C30.4088 13.1648 27.5846 6.9699 22.12 4.14669V4.14669Z" fill="#E7E7E7"/>
</g>
</g>
</svg>
