<svg width="25" height="25" viewBox="0 0 25 25" fill="none" xmlns="http://www.w3.org/2000/svg">
<g id="More">
<path id="Border" d="M12.6667 24.4667C19.3678 24.4667 24.8001 19.0344 24.8001 12.3334C24.8001 5.63232 19.3678 0.200041 12.6667 0.200041C5.96569 0.200041 0.533415 5.63232 0.533415 12.3334C0.533415 19.0344 5.96569 24.4667 12.6667 24.4667Z" stroke="#CCCCCC" stroke-width="0.266667"/>
<g id="chevron-down">
<path id="Shape" d="M12.6667 13.3905L9.64224 9.86195C9.41908 9.6016 9.05727 9.6016 8.83412 9.86195C8.61096 10.1223 8.61096 10.5444 8.83412 10.8048L12.2627 14.8048C12.4858 15.0651 12.8477 15.0651 13.0708 14.8048L16.4994 10.8048C16.7225 10.5444 16.7225 10.1223 16.4994 9.86195C16.2762 9.6016 15.9144 9.6016 15.6913 9.86195L12.6667 13.3905Z" fill="white"/>
<mask id="mask0_209_14448" style="mask-type:luminance" maskUnits="userSpaceOnUse" x="8" y="9" width="9" height="6">
<path id="Shape_2" d="M12.6667 13.3905L9.64224 9.86195C9.41908 9.6016 9.05727 9.6016 8.83412 9.86195C8.61096 10.1223 8.61096 10.5444 8.83412 10.8048L12.2627 14.8048C12.4858 15.0651 12.8477 15.0651 13.0708 14.8048L16.4994 10.8048C16.7225 10.5444 16.7225 10.1223 16.4994 9.86195C16.2762 9.6016 15.9144 9.6016 15.6913 9.86195L12.6667 13.3905Z" fill="white"/>
</mask>
<g mask="url(#mask0_209_14448)">
</g>
</g>
</g>
</svg>
