<svg width="81" height="81" viewBox="0 0 81 81" fill="none" xmlns="http://www.w3.org/2000/svg">
<g id="Icon">
<path id="Circle 2" opacity="0.85" fill-rule="evenodd" clip-rule="evenodd" d="M0.333344 40.3333V49.6666C0.333344 66.6034 14.0633 80.3333 31 80.3333H40.3333H49.6667C66.6034 80.3333 80.3333 66.6034 80.3333 49.6666V40.3333V31C80.3333 14.0632 66.6034 0.333313 49.6667 0.333313H40.3333H31C14.0633 0.333313 0.333344 14.0632 0.333344 31V40.3333Z" fill="#FEC53D"/>
<g id="icon">
<path id="Combined Shape" fill-rule="evenodd" clip-rule="evenodd" d="M20.3333 32.7553L37.534 42.6861C37.7192 42.793 37.9134 42.8702 38.1111 42.9193V62.1796L21.5601 52.3847C20.7997 51.9347 20.3333 51.1167 20.3333 50.2332V32.7553ZM60.3333 32.4913V50.2332C60.3333 51.1167 59.867 51.9347 59.1066 52.3847L42.5556 62.1796V42.7505C42.5959 42.7304 42.6359 42.7089 42.6754 42.6861L60.3333 32.4913Z" fill="white"/>
<path id="Path" opacity="0.499209" fill-rule="evenodd" clip-rule="evenodd" d="M20.8736 27.9352C21.0837 27.6699 21.3489 27.4456 21.6581 27.281L39.1581 17.9601C39.8927 17.5688 40.7739 17.5688 41.5086 17.9601L59.0086 27.281C59.2469 27.4079 59.4591 27.5702 59.6401 27.7595L40.4532 38.8371C40.327 38.9099 40.2107 38.9932 40.1047 39.0853C39.9987 38.9932 39.8824 38.9099 39.7562 38.8371L20.8736 27.9352Z" fill="white"/>
</g>
</g>
</svg>
