<svg width="32" height="33" viewBox="0 0 32 33" fill="none" xmlns="http://www.w3.org/2000/svg">
<rect opacity="0.01" x="32" y="32.6667" width="32" height="32" transform="rotate(180 32 32.6667)" fill="black"/>
<path d="M4.32007 10.3866L15.6801 16.56C15.8801 16.6666 16.1201 16.6666 16.3201 16.56L27.6801 10.3866C27.892 10.282 28.0204 10.0604 28.0059 9.82448C27.9913 9.58857 27.8366 9.38444 27.6134 9.30665L16.2534 4.66665C16.0911 4.59997 15.909 4.59997 15.7467 4.66665L4.38674 9.30665C4.16355 9.38444 4.00885 9.58857 3.99428 9.82448C3.97972 10.0604 4.10815 10.282 4.32007 10.3866Z" fill="white"/>
<path d="M27.6133 14.88L25.1733 13.84L16.3199 18.6533C16.1199 18.76 15.8799 18.76 15.6799 18.6533L6.8266 13.84L4.3866 14.88C4.17599 14.9906 4.04407 15.2088 4.04407 15.4467C4.04407 15.6845 4.17599 15.9028 4.3866 16.0133L15.7466 22.5467C15.943 22.6668 16.1902 22.6668 16.3866 22.5467L27.7466 16.0133C27.9472 15.8798 28.0558 15.645 28.0276 15.4058C27.9995 15.1665 27.8393 14.9633 27.6133 14.88V14.88Z" fill="white"/>
<path d="M27.6133 20.8L25.5333 19.8933L16.32 24.9067C16.12 25.0133 15.88 25.0133 15.68 24.9067L6.46665 19.8933L4.38665 20.8C4.17003 20.9123 4.03406 21.136 4.03406 21.38C4.03406 21.624 4.17003 21.8477 4.38665 21.96L15.7467 28.6267C15.9467 28.7333 16.1867 28.7333 16.3867 28.6267L27.7467 21.96C27.9533 21.8246 28.0659 21.5843 28.0377 21.3389C28.0095 21.0935 27.8453 20.885 27.6133 20.8Z" fill="white"/>
</svg>
