<svg width="81" height="80" viewBox="0 0 81 80" fill="none" xmlns="http://www.w3.org/2000/svg">
<g id="Icon">
<path id="Circle 2" opacity="0.847354" fill-rule="evenodd" clip-rule="evenodd" d="M0.333344 40V49.3333C0.333344 66.2701 14.0633 80 31 80H40.3333H49.6667C66.6034 80 80.3333 66.2701 80.3333 49.3333V40V30.6667C80.3333 13.7299 66.6034 0 49.6667 0H40.3333H31C14.0633 0 0.333344 13.7299 0.333344 30.6667V40Z" fill="#FF9066"/>
<g id="icon">
<path id="Path 107" opacity="0.78" fill-rule="evenodd" clip-rule="evenodd" d="M38.5081 31.7451C38.5349 31.3978 38.8245 31.1296 39.1729 31.1296H39.7299C40.0725 31.1296 40.3592 31.3891 40.3933 31.7299L41.2222 40.0185L47.1085 43.3821C47.3162 43.5008 47.4444 43.7217 47.4444 43.9609V44.479C47.4444 44.9186 47.0264 45.2378 46.6023 45.1222L38.1982 42.8301C37.8897 42.746 37.6843 42.4547 37.7089 42.1358L38.5081 31.7451Z" fill="white"/>
<path id="Combined Shape" opacity="0.901274" fill-rule="evenodd" clip-rule="evenodd" d="M30.629 19.9792C30.2768 19.5595 29.5969 19.7202 29.4698 20.253L27.2919 29.3839C27.1883 29.8181 27.5324 30.2294 27.978 30.2042L37.3711 29.6719C37.9189 29.6408 38.1968 28.9981 37.844 28.5778L35.4421 25.7153C36.9953 25.1846 38.6422 24.9073 40.3333 24.9073C48.6789 24.9073 55.4444 31.6728 55.4444 40.0185C55.4444 48.3641 48.6789 55.1296 40.3333 55.1296C31.9877 55.1296 25.2222 48.3641 25.2222 40.0185C25.2222 38.6174 25.4119 37.2452 25.7818 35.9264L22.3584 34.9661C21.9077 36.573 21.6666 38.2676 21.6666 40.0185C21.6666 50.3278 30.024 58.6851 40.3333 58.6851C50.6426 58.6851 59 50.3278 59 40.0185C59 29.7091 50.6426 21.3518 40.3333 21.3518C37.7401 21.3518 35.2705 21.8806 33.0263 22.8362L30.629 19.9792Z" fill="white"/>
</g>
</g>
</svg>
