<svg width="32" height="32" viewBox="0 0 32 32" fill="none" xmlns="http://www.w3.org/2000/svg">
<g id="Element / icon /  pricing">
<rect id="Rectangle" opacity="0.01" width="32" height="32" fill="black"/>
<path id="Shape" fill-rule="evenodd" clip-rule="evenodd" d="M20.4 3.10667L26.32 9.77333C26.5423 10.0179 26.6658 10.3362 26.6667 10.6667V26C26.6562 26.8947 26.2906 27.7485 25.6505 28.3737C25.0103 28.9988 24.1481 29.344 23.2534 29.3333H8.74671C7.85203 29.344 6.98975 28.9988 6.34962 28.3737C5.70948 27.7485 5.34392 26.8947 5.33337 26V6C5.34392 5.10532 5.70948 4.25147 6.34962 3.62634C6.98975 3.00121 7.85203 2.656 8.74671 2.66667H19.4134C19.7896 2.66756 20.148 2.82736 20.4 3.10667ZM16 16H12C11.2636 16 10.6667 16.597 10.6667 17.3333C10.6667 18.0697 11.2636 18.6667 12 18.6667H16C16.7364 18.6667 17.3333 18.0697 17.3333 17.3333C17.3333 16.597 16.7364 16 16 16ZM20 24H12C11.2636 24 10.6667 23.403 10.6667 22.6667C10.6667 21.9303 11.2636 21.3333 12 21.3333H20C20.7364 21.3333 21.3333 21.9303 21.3333 22.6667C21.3333 23.403 20.7364 24 20 24ZM18.6667 9.53333C18.6203 10.1061 19.0415 10.6104 19.6134 10.6667H23.6534L18.6667 5.33333V9.53333Z" fill="white"/>
</g>
</svg>
