<svg width="32" height="33" viewBox="0 0 32 33" fill="none" xmlns="http://www.w3.org/2000/svg">
<rect opacity="0.01" y="0.666687" width="32" height="32" fill="black"/>
<path d="M15 16.44L4 11.8134V22.12C4.01184 22.9976 4.53213 23.7884 5.33333 24.1467L14.92 28.6667H15V16.44Z" fill="white"/>
<path d="M16 14.6667L27.3467 9.90668C27.1557 9.69452 26.9246 9.52231 26.6667 9.40001L17.0667 4.90668C16.3914 4.5871 15.6085 4.5871 14.9333 4.90668L5.33332 9.40001C5.0754 9.52231 4.84428 9.69452 4.65332 9.90668L16 14.6667Z" fill="white"/>
<path d="M17 16.44V28.6667H17.0667L26.6667 24.1467C27.4636 23.7905 27.983 23.0061 28 22.1334V11.8134L17 16.44Z" fill="white"/>
</svg>
