<svg width="81" height="81" viewBox="0 0 81 81" fill="none" xmlns="http://www.w3.org/2000/svg">
<g id="Icon">
<path id="Circle 2" opacity="0.84" fill-rule="evenodd" clip-rule="evenodd" d="M0.333344 40.6667V50C0.333344 66.9368 14.0633 80.6667 31 80.6667H40.3333H49.6667C66.6034 80.6667 80.3333 66.9368 80.3333 50V40.6667V31.3334C80.3333 14.3966 66.6034 0.666687 49.6667 0.666687H40.3333H31C14.0633 0.666687 0.333344 14.3966 0.333344 31.3334V40.6667Z" fill="#4AD991"/>
<g id="icon">
<path id="Path 95" d="M25.8148 55.1852H56.9259C58.0714 55.1852 59 56.1138 59 57.2593C59 58.4048 58.0714 59.3334 56.9259 59.3334H23.7407C22.5953 59.3334 21.6667 58.4048 21.6667 57.2593V24.0741C21.6667 22.9286 22.5953 22 23.7407 22C24.8862 22 25.8148 22.9286 25.8148 24.0741V55.1852Z" fill="white"/>
<path id="Path 97" opacity="0.759394" d="M33.5502 46.2334C32.7667 47.069 31.4542 47.1114 30.6185 46.3279C29.7828 45.5445 29.7405 44.232 30.5239 43.3963L38.3017 35.1C39.0594 34.2918 40.3185 34.2217 41.1612 34.9408L47.2999 40.1792L55.298 30.0482C56.0078 29.1491 57.3121 28.9957 58.2111 29.7054C59.1102 30.4152 59.2636 31.7195 58.5539 32.6185L49.2205 44.4408C48.4915 45.3642 47.1412 45.497 46.2463 44.7333L39.9742 39.3811L33.5502 46.2334Z" fill="white"/>
</g>
</g>
</svg>
