<svg width="32" height="33" viewBox="0 0 32 33" fill="none" xmlns="http://www.w3.org/2000/svg">
<g id="Element / icon / settings">
<rect id="Rectangle" opacity="0.01" x="32" y="32.6667" width="32" height="32" transform="rotate(180 32 32.6667)" fill="black"/>
<path id="Oval" d="M16 18.6667C17.1046 18.6667 18 17.7713 18 16.6667C18 15.5621 17.1046 14.6667 16 14.6667C14.8954 14.6667 14 15.5621 14 16.6667C14 17.7713 14.8954 18.6667 16 18.6667Z" fill="white"/>
<path id="Shape" fill-rule="evenodd" clip-rule="evenodd" d="M25.64 13.16H27.0933C28.3326 13.1673 29.3333 14.1741 29.3333 15.4133V18C29.3269 19.2014 28.3739 20.1838 27.1733 20.2267H25.72C25.5452 20.2414 25.3946 20.3557 25.3333 20.52C25.236 20.6701 25.236 20.8633 25.3333 21.0133L26.3066 21.9867C26.7276 22.4047 26.9643 22.9734 26.9643 23.5667C26.9643 24.1599 26.7276 24.7287 26.3066 25.1467L24.52 26.9333C24.1068 27.3585 23.5395 27.5989 22.9466 27.6C22.3512 27.5922 21.7822 27.3531 21.36 26.9333L20.3466 25.9067C20.1966 25.8094 20.0033 25.8094 19.8533 25.9067C19.6533 25.9867 19.5066 26.12 19.5066 26.3067V27.76C19.4993 28.9993 18.4926 30 17.2533 30H14.7333C13.5268 30.0008 12.5364 29.0458 12.4933 27.84V26.3867C12.4786 26.2119 12.3643 26.0613 12.2 26C12.0334 25.8933 11.8199 25.8933 11.6533 26L10.6266 26.9867C10.2086 27.4076 9.63988 27.6444 9.04663 27.6444C8.45337 27.6444 7.88465 27.4076 7.46663 26.9867L5.67996 25.1733C5.25279 24.756 5.01237 24.1838 5.01329 23.5867C5.02111 22.9913 5.26019 22.4223 5.67996 22L6.75996 21.0133C6.85727 20.8633 6.85727 20.6701 6.75996 20.52C6.67996 20.32 6.54663 20.1733 6.35996 20.1733H4.90663C3.66735 20.166 2.6666 19.1593 2.66663 17.92V15.4C2.66663 14.1629 3.66951 13.16 4.90663 13.16H6.27996C6.45474 13.1453 6.60534 13.031 6.66663 12.8667C6.77336 12.7001 6.77336 12.4866 6.66663 12.32L5.67996 11.3333C5.24655 10.9139 5.00185 10.3365 5.00185 9.73334C5.00185 9.13018 5.24655 8.55282 5.67996 8.13334L7.50663 6.34668C7.91982 5.92154 8.48711 5.68117 9.07996 5.68001C9.67534 5.68783 10.2443 5.9269 10.6666 6.34668L11.6533 7.42668C11.8033 7.52399 11.9966 7.52399 12.1466 7.42668C12.3466 7.34668 12.4933 7.21334 12.4933 7.02668V5.57334C12.5006 4.33407 13.5073 3.33332 14.7466 3.33334H17.3333C18.5443 3.3694 19.5072 4.3618 19.5066 5.57334V6.94668C19.5214 7.12146 19.6356 7.27206 19.8 7.33334C19.9666 7.44008 20.18 7.44008 20.3466 7.33334L21.3733 6.34668C21.7913 5.92572 22.36 5.68897 22.9533 5.68897C23.5465 5.68897 24.1153 5.92572 24.5333 6.34668L26.32 8.17334C26.7459 8.59151 26.986 9.16315 26.9866 9.76001C26.9885 10.3535 26.7477 10.9219 26.32 11.3333L25.24 12.32C25.1427 12.4701 25.1427 12.6633 25.24 12.8133C25.32 13.0133 25.4533 13.16 25.64 13.16ZM11.6885 18.4526C12.4108 20.1964 14.1125 21.3334 16 21.3334C18.5773 21.3334 20.6666 19.244 20.6666 16.6667C20.6666 14.7792 19.5296 13.0776 17.7858 12.3553C16.042 11.633 14.0348 12.0322 12.7001 13.3669C11.3655 14.7015 10.9662 16.7087 11.6885 18.4526Z" fill="white"/>
</g>
</svg>
