<svg width="81" height="81" viewBox="0 0 81 81" fill="none" xmlns="http://www.w3.org/2000/svg">
<g id="Icon">
<path id="Circle 2" opacity="0.842657" fill-rule="evenodd" clip-rule="evenodd" d="M0.333374 40.3333V49.6666C0.333374 66.6034 14.0633 80.3333 31 80.3333H40.3334H49.6667C66.6034 80.3333 80.3334 66.6034 80.3334 49.6666V40.3333V31C80.3334 14.0632 66.6034 0.333313 49.6667 0.333313H40.3334H31C14.0633 0.333313 0.333374 14.0632 0.333374 31V40.3333Z" fill="#8280FF"/>
<g id="Group">
<path id="Combined Shape" opacity="0.587821" fill-rule="evenodd" clip-rule="evenodd" d="M27.8889 31.4444C27.8889 35.3718 31.0726 38.5555 35 38.5555C38.9273 38.5555 42.1111 35.3718 42.1111 31.4444C42.1111 27.5171 38.9273 24.3333 35 24.3333C31.0726 24.3333 27.8889 27.5171 27.8889 31.4444ZM45.6666 38.5555C45.6666 41.501 48.0545 43.8888 51 43.8888C53.9455 43.8888 56.3333 41.501 56.3333 38.5555C56.3333 35.61 53.9455 33.2222 51 33.2222C48.0545 33.2222 45.6666 35.61 45.6666 38.5555Z" fill="white"/>
<path id="Combined Shape_2" fill-rule="evenodd" clip-rule="evenodd" d="M34.9704 42.1111C26.5767 42.1111 19.6902 46.4249 19.0012 54.9097C18.9636 55.3718 19.8475 56.3333 20.2933 56.3333H49.6608C50.9963 56.3333 51.017 55.2586 50.9963 54.9111C50.4753 46.1879 43.4822 42.1111 34.9704 42.1111ZM60.6994 56.3333C61.664 56.3333 61.6789 55.5273 61.664 55.2666L60.6994 56.3333ZM61.664 55.2666C61.2918 48.7958 56.347 45.7339 50.291 45.6677L61.664 55.2666ZM50.291 45.6677C52.5223 48.6388 53.8444 52.3316 53.8444 56.3333L50.291 45.6677Z" fill="white"/>
</g>
</g>
</svg>
